<?xml version="1.0" encoding="UTF-8" standalone="no"?>
<!DOCTYPE svg PUBLIC "-//W3C//DTD SVG 1.1//EN" "http://www.w3.org/Graphics/SVG/1.1/DTD/svg11.dtd">
<svg version="1.1" xmlns="http://www.w3.org/2000/svg" xmlns:xlink="http://www.w3.org/1999/xlink" preserveAspectRatio="xMidYMid meet" viewBox="195.61150284395887 219.00000000000009 227.25499715604127 203.9999999999998" width="223.25" height="200"><defs><path d="M328.06 220.33L332.09 220.74L336.08 221.31L340.01 222.03L343.89 222.91L347.7 223.93L351.46 225.1L355.15 226.41L358.78 227.86L362.33 229.45L365.81 231.17L369.21 233.02L372.53 234.99L375.76 237.09L378.91 239.3L381.97 241.64L384.93 244.08L387.8 246.64L390.56 249.3L393.23 252.07L395.78 254.94L398.23 257.9L400.56 260.96L402.78 264.11L404.88 267.34L406.85 270.66L408.7 274.06L410.42 277.54L412 281.09L413.45 284.71L414.76 288.41L415.93 292.16L416.96 295.98L417.83 299.86L418.56 303.79L419.12 307.77L419.53 311.8L419.78 315.88L419.87 320L419.78 324.12L419.53 328.2L419.12 332.23L418.56 336.21L417.83 340.14L416.96 344.02L415.93 347.84L414.76 351.59L413.45 355.29L412 358.91L410.42 362.46L408.7 365.94L406.85 369.34L404.88 372.66L402.78 375.89L400.56 379.04L398.23 382.1L395.78 385.06L393.23 387.93L390.56 390.7L387.8 393.36L384.93 395.92L381.97 398.36L378.91 400.7L375.76 402.91L372.53 405.01L369.21 406.98L365.81 408.83L362.33 410.55L358.78 412.14L355.15 413.59L351.46 414.9L347.7 416.07L343.89 417.09L340.01 417.97L336.08 418.69L332.09 419.26L328.06 419.67L323.99 419.92L319.87 420L315.75 419.92L311.67 419.67L307.64 419.26L303.65 418.69L299.72 417.97L295.85 417.09L292.03 416.07L288.27 414.9L284.58 413.59L280.96 412.14L277.41 410.55L273.93 408.83L270.53 406.98L267.21 405.01L263.97 402.91L260.82 400.7L258.86 399.2L273.87 379.22L275.58 380.52L277.95 382.18L280.37 383.76L282.86 385.24L285.41 386.62L288.02 387.91L290.68 389.1L293.4 390.19L296.17 391.17L298.99 392.05L301.85 392.82L304.76 393.48L307.71 394.02L310.7 394.44L313.72 394.75L316.78 394.94L319.87 395L322.96 394.94L326.01 394.75L329.04 394.44L332.03 394.02L334.97 393.48L337.88 392.82L340.74 392.05L343.56 391.17L346.33 390.19L349.05 389.1L351.71 387.91L354.32 386.62L356.87 385.24L359.36 383.76L361.79 382.18L364.15 380.52L366.44 378.77L368.66 376.94L370.81 375.02L372.89 373.02L374.89 370.95L376.8 368.8L378.64 366.58L380.39 364.28L382.05 361.92L383.62 359.49L385.1 357L386.49 354.45L387.78 351.85L388.97 349.18L390.06 346.46L391.04 343.7L391.92 340.88L392.69 338.01L393.34 335.11L393.88 332.16L394.31 329.17L394.62 326.15L394.8 323.09L394.87 320L394.8 316.91L394.62 313.85L394.31 310.83L393.88 307.84L393.34 304.89L392.69 301.99L391.92 299.12L391.04 296.3L390.06 293.54L388.97 290.82L387.78 288.15L386.49 285.55L385.1 283L383.62 280.51L382.05 278.08L380.39 275.72L378.64 273.42L376.8 271.2L374.89 269.05L372.89 266.98L370.81 264.98L368.66 263.06L366.44 261.23L364.15 259.48L361.79 257.82L359.36 256.24L356.87 254.76L354.32 253.38L351.71 252.09L349.05 250.9L346.33 249.81L343.56 248.83L340.74 247.95L337.88 247.18L334.97 246.52L332.03 245.98L329.04 245.56L326.01 245.25L322.96 245.06L319.87 245L316.78 245.06L313.72 245.25L310.7 245.56L307.71 245.98L304.76 246.52L301.85 247.18L298.99 247.95L296.17 248.83L293.4 249.81L290.68 250.9L288.02 252.09L285.41 253.38L282.86 254.76L280.37 256.24L277.95 257.82L275.58 259.48L273.29 261.23L271.07 263.06L268.92 264.98L266.84 266.98L264.85 269.05L262.93 271.2L261.09 273.42L259.35 275.72L257.68 278.08L256.11 280.51L254.63 283L253.24 285.55L251.95 288.15L250.76 290.82L249.68 293.54L248.69 296.3L247.82 299.12L247.05 301.99L246.39 304.89L245.85 307.84L245.42 310.83L245.34 311.6L269.51 311.6L251.29 338.89L233.06 366.18L214.83 338.89L196.61 311.6L220.22 311.6L220.61 307.77L221.18 303.79L221.9 299.86L222.77 295.98L223.8 292.16L224.97 288.41L226.28 284.71L227.73 281.09L229.32 277.54L231.04 274.06L232.88 270.66L234.86 267.34L236.95 264.11L239.17 260.96L241.5 257.9L243.95 254.94L246.51 252.07L249.17 249.3L251.94 246.64L254.8 244.08L257.77 241.64L260.82 239.3L263.97 237.09L267.21 234.99L270.53 233.02L273.93 231.17L277.41 229.45L280.96 227.86L284.58 226.41L288.27 225.1L292.03 223.93L295.85 222.91L299.72 222.03L303.65 221.31L307.64 220.74L311.67 220.33L315.75 220.08L319.87 220L323.99 220.08L328.06 220.33ZM320.9 257.76L322.13 258.19L323.28 258.77L324.35 259.49L325.31 260.33L326.15 261.3L326.87 262.36L327.45 263.51L327.88 264.75L328.15 266.05L328.21 266.96L328.22 267.07L328.23 267.25L328.24 267.42L328.24 323.66L355.98 347.93L356.09 348.04L356.2 348.15L356.3 348.27L356.4 348.4L356.48 348.53L356.56 348.66L356.6 348.75L356.8 348.88L357.76 349.72L358.61 350.69L359.33 351.75L359.91 352.9L360.33 354.14L360.6 355.44L360.69 356.79L360.6 358.15L360.33 359.45L359.91 360.69L359.33 361.84L358.61 362.9L357.76 363.86L356.8 364.71L355.74 365.43L354.58 366.01L353.35 366.44L352.05 366.7L350.69 366.79L349.34 366.7L348.03 366.44L346.8 366.01L345.65 365.43L344.58 364.71L343.62 363.86L342.94 363.09L342.93 363.08L342.81 362.98L309.14 333.52L309.02 333.41L308.91 333.3L308.81 333.18L308.72 333.05L308.63 332.93L308.55 332.79L308.49 332.66L308.43 332.52L308.37 332.38L308.33 332.23L308.3 332.09L308.27 331.94L308.25 331.79L308.24 331.64L308.24 331.49L308.25 331.34L308.26 331.19L308.29 331.04L308.32 330.9L308.33 330.86L308.31 330.76L308.28 330.59L308.26 330.41L308.24 330.24L308.24 330.06L308.24 267.42L308.24 267.25L308.26 267.07L308.27 266.96L308.33 266.05L308.6 264.75L309.03 263.51L309.61 262.36L310.32 261.3L311.17 260.33L312.13 259.49L313.19 258.77L314.35 258.19L315.58 257.76L316.88 257.5L318.24 257.4L319.6 257.5L320.9 257.76Z" id="b3tT0e4hYj"></path></defs><g><g><use xlink:href="#b3tT0e4hYj" opacity="1" fill="#1c86ad" fill-opacity="1"></use></g></g></svg>