<?xml version="1.0" encoding="UTF-8" standalone="no"?>
<!DOCTYPE svg PUBLIC "-//W3C//DTD SVG 1.1//EN" "http://www.w3.org/Graphics/SVG/1.1/DTD/svg11.dtd">
<svg version="1.1" xmlns="http://www.w3.org/2000/svg" xmlns:xlink="http://www.w3.org/1999/xlink" preserveAspectRatio="xMidYMid meet" viewBox="263.55043414166875 157.39735657204204 144.00000000000006 254.00000000000006" width="140" height="250"><defs><path d="M399.11 158.42L399.34 158.44L399.58 158.47L399.81 158.52L400.04 158.57L400.27 158.63L400.49 158.7L400.71 158.78L400.93 158.86L401.14 158.96L401.34 159.06L401.55 159.17L401.74 159.29L401.94 159.41L402.12 159.54L402.3 159.68L402.48 159.83L402.65 159.98L402.81 160.13L402.97 160.3L403.12 160.47L403.27 160.64L403.41 160.83L403.54 161.01L403.66 161.2L403.78 161.4L403.89 161.6L403.99 161.81L404.08 162.02L404.17 162.23L404.25 162.45L404.32 162.68L404.38 162.9L404.43 163.13L404.47 163.37L404.51 163.6L404.53 163.84L404.55 164.08L404.55 164.33L404.55 344.44L404.55 344.69L404.53 344.93L404.52 345L404.55 345L404.55 408.4L336.72 350.37L332.38 350.37L264.55 408.4L264.55 345L264.58 345L264.57 344.93L264.56 344.69L264.55 344.44L264.55 164.33L264.56 164.08L264.57 163.84L264.59 163.6L264.63 163.37L264.67 163.13L264.72 162.9L264.78 162.68L264.85 162.45L264.93 162.23L265.02 162.02L265.11 161.81L265.21 161.6L265.32 161.4L265.44 161.2L265.56 161.01L265.69 160.83L265.83 160.64L265.98 160.47L266.13 160.3L266.29 160.13L266.45 159.98L266.62 159.83L266.8 159.68L266.98 159.54L267.17 159.41L267.36 159.29L267.55 159.17L267.76 159.06L267.96 158.96L268.17 158.86L268.39 158.78L268.61 158.7L268.83 158.63L269.06 158.57L269.29 158.52L269.52 158.47L269.76 158.44L270 158.42L270.24 158.4L270.48 158.4L398.62 158.4L398.86 158.4L399.11 158.42Z" id="azTZVp3ba"></path></defs><g><g><use xlink:href="#azTZVp3ba" opacity="1" fill="#e40adf" fill-opacity="1"></use></g></g></svg>